# xmcd
#
# Track frame offsets:
#	150
#	14467
#	41292
#
# Disc length: 979 seconds
#
# Revision: 0
# Processed by: cddbd v1.5.2PL0 Copyright (c) Steve Scherf et al.
# Submitted via: audiograbber 1.83.01
#
DISCID=1803d103
DTITLE=Mariana - Ye, Ye Breasil
DYEAR=1998
DGENRE=Party
TTITLE0=Ye, Ye Breasil (Radio Edit)
TTITLE1=Ye, Ye Breasil (Brasil Mix)
TTITLE2=Ye, Ye Breasil (US Club Mix)
EXTD=
EXTT0=
EXTT1=
EXTT2=
PLAYORDER=
